<svg width="77" height="69" viewBox="0 0 77 69" fill="none" xmlns="http://www.w3.org/2000/svg">
<mask id="path-1-inside-1_102_258" fill="white">
<path fill-rule="evenodd" clip-rule="evenodd" d="M33.9793 1.98624C36.3627 -0.662081 40.5154 -0.662081 42.8989 1.98624L75.3262 38.0171C78.8011 41.8782 76.061 48.0308 70.8664 48.0308H66.2999C62.9862 48.0308 60.3 50.7171 60.3 54.0308V62.2519C60.3 65.5656 57.6137 68.2519 54.3 68.2519H21.2818C17.9681 68.2519 15.2818 65.5656 15.2818 62.2519V54.0308C15.2818 50.7171 12.5955 48.0308 9.28183 48.0308H6.01177C0.817167 48.0308 -1.923 41.8782 1.55198 38.0171L9.94934 28.6866C12.2418 26.1393 11 21.4269 11 18V14C11 10.6863 13.6863 8 17 8C20.3137 8 23 10.6863 23 14C23 14.0653 23.0805 14.0962 23.1242 14.0476L33.9793 1.98624Z"/>
</mask>
<path d="M9.94934 28.6866L12.1792 30.6934L9.94934 28.6866ZM1.55198 38.0171L-0.677913 36.0102L1.55198 38.0171ZM23.1242 14.0476L20.8943 12.0408L23.1242 14.0476ZM42.8989 1.98624L40.669 3.99312L42.8989 1.98624ZM33.9793 1.98624L31.7494 -0.0206352L33.9793 1.98624ZM75.3262 38.0171L77.5561 36.0102L75.3262 38.0171ZM77.5561 36.0102L45.1288 -0.0206356L40.669 3.99312L73.0963 40.024L77.5561 36.0102ZM66.2999 51.0308H70.8664V45.0308H66.2999V51.0308ZM63.3 62.2519V54.0308H57.3V62.2519H63.3ZM21.2818 71.2519H54.3V65.2519H21.2818V71.2519ZM12.2818 54.0308V62.2519H18.2818V54.0308H12.2818ZM6.01177 51.0308H9.28183V45.0308H6.01177V51.0308ZM7.71944 26.6797L-0.677913 36.0102L3.78188 40.024L12.1792 30.6934L7.71944 26.6797ZM14 18V14H7.99999V18H14ZM14 14C14 12.3431 15.3431 11 17 11V5C12.0294 5 7.99999 9.02944 7.99999 14H14ZM17 11C18.6568 11 20 12.3431 20 14H26C26 9.02944 21.9706 5 17 5V11ZM31.7494 -0.0206352L20.8943 12.0408L25.3541 16.0545L36.2092 3.99312L31.7494 -0.0206352ZM12.1792 30.6934C14.1276 28.5285 14.3598 25.7024 14.3341 23.6359C14.3206 22.5477 14.2265 21.4488 14.1478 20.5072C14.0648 19.5159 14 18.7084 14 18H7.99999C7.99999 19.0051 8.09037 20.0717 8.16865 21.0074C8.25108 21.9928 8.32418 22.8737 8.33457 23.7104C8.35671 25.4936 8.06352 26.2974 7.71944 26.6797L12.1792 30.6934ZM6.01177 45.0308C3.41448 45.0308 2.04438 41.9545 3.78188 40.024L-0.677913 36.0102C-5.89038 41.8019 -1.78014 51.0308 6.01177 51.0308V45.0308ZM18.2818 54.0308C18.2818 49.0603 14.2524 45.0308 9.28183 45.0308V51.0308C10.9387 51.0308 12.2818 52.374 12.2818 54.0308H18.2818ZM21.2818 65.2519C19.625 65.2519 18.2818 63.9087 18.2818 62.2519H12.2818C12.2818 67.2224 16.3113 71.2519 21.2818 71.2519V65.2519ZM57.3 62.2519C57.3 63.9087 55.9568 65.2519 54.3 65.2519V71.2519C59.2705 71.2519 63.3 67.2224 63.3 62.2519H57.3ZM66.2999 45.0308C61.3294 45.0308 57.3 49.0603 57.3 54.0308H63.3C63.3 52.374 64.6431 51.0308 66.2999 51.0308V45.0308ZM20 14C20 16.8148 23.4711 18.1467 25.3541 16.0545L20.8943 12.0408C22.6899 10.0456 26 11.3158 26 14H20ZM45.1288 -0.0206356C41.5536 -3.99312 35.3246 -3.99312 31.7494 -0.0206352L36.2092 3.99312C37.4009 2.66896 39.4772 2.66896 40.669 3.99312L45.1288 -0.0206356ZM73.0963 40.024C74.8338 41.9545 73.4637 45.0308 70.8664 45.0308V51.0308C78.6583 51.0308 82.7685 41.8019 77.5561 36.0102L73.0963 40.024Z" fill="black" mask="url(#path-1-inside-1_102_258)"/>
</svg>
