<svg width="72" height="73" viewBox="0 0 72 73" fill="none" xmlns="http://www.w3.org/2000/svg">
<mask id="path-1-inside-1_506_439" fill="white">
<path fill-rule="evenodd" clip-rule="evenodd" d="M16.8358 18.5185C18.8562 18.5185 20.7091 17.4745 21.988 15.9103C26.4751 10.422 32.8066 6.50042 40.0364 5.09158C43.289 4.45778 46 7.20479 46 10.5185V18.5185V52.5185V60.5185C46 63.8322 43.289 66.5792 40.0364 65.9454C32.8066 64.5366 26.4751 60.615 21.988 55.1267C20.7091 53.5625 18.8562 52.5185 16.8358 52.5185H11C7.68629 52.5185 5 49.8322 5 46.5185V24.5185C5 21.2048 7.68629 18.5185 11 18.5185H16.8358Z"/>
</mask>
<path d="M16.8358 18.5185V21.5185V18.5185ZM21.988 55.1267L24.3105 53.2278L21.988 55.1267ZM40.0364 5.09158L39.4626 2.14696L40.0364 5.09158ZM39.4626 2.14696C31.5255 3.69361 24.5824 7.99731 19.6654 14.0114L24.3105 17.8092C28.3677 12.8467 34.0876 9.30722 40.6102 8.03619L39.4626 2.14696ZM49 18.5185V10.5185H43V18.5185H49ZM43 18.5185V52.5185H49V18.5185H43ZM49 60.5185V52.5185H43V60.5185H49ZM19.6654 57.0255C24.5824 63.0397 31.5255 67.3434 39.4626 68.89L40.6102 63.0008C34.0876 61.7298 28.3677 58.1903 24.3105 53.2278L19.6654 57.0255ZM16.8358 49.5185H11V55.5185H16.8358V49.5185ZM8 46.5185V24.5185H2V46.5185H8ZM11 21.5185H16.8358V15.5185H11L11 21.5185ZM8 24.5185C8 22.8616 9.34315 21.5185 11 21.5185L11 15.5185C6.02944 15.5185 2 19.5479 2 24.5185H8ZM43 60.5185C43 61.3649 42.6517 62.0849 42.1805 62.5289C41.738 62.9459 41.208 63.1173 40.6102 63.0008L39.4626 68.89C44.9666 69.9625 49 65.2897 49 60.5185H43ZM11 49.5185C9.34315 49.5185 8 48.1754 8 46.5185H2C2 51.4891 6.02944 55.5185 11 55.5185V49.5185ZM19.6654 14.0114C18.846 15.0137 17.7951 15.5185 16.8358 15.5185V21.5185C19.9173 21.5185 22.5723 19.9353 24.3105 17.8092L19.6654 14.0114ZM24.3105 53.2278C22.5723 51.1017 19.9173 49.5185 16.8358 49.5185V55.5185C17.7951 55.5185 18.846 56.0233 19.6654 57.0255L24.3105 53.2278ZM40.6102 8.03619C41.208 7.91972 41.738 8.09108 42.1805 8.50812C42.6517 8.95206 43 9.67214 43 10.5185H49C49 5.74728 44.9666 1.07445 39.4626 2.14696L40.6102 8.03619Z" fill="black" mask="url(#path-1-inside-1_506_439)"/>
<rect x="50.0795" y="15.6107" width="15.4159" height="4.20694" rx="2.10347" transform="rotate(-33.6007 50.0795 15.6107)" stroke="black" stroke-width="3"/>
<rect x="2.07947" y="-0.419268" width="15.4159" height="4.20694" rx="2.10347" transform="matrix(0.832914 0.553402 0.553402 -0.832914 48.6654 53.9092)" stroke="black" stroke-width="3"/>
<rect x="50.5859" y="33.3257" width="15.4159" height="4.20694" rx="2.10347" stroke="black" stroke-width="3"/>
<rect opacity="0.9" y="70" width="98.4612" height="3" transform="rotate(-45 0 70)" fill="black"/>
</svg>
