<svg width="63" height="62" viewBox="0 0 63 62" fill="none" xmlns="http://www.w3.org/2000/svg">
<mask id="path-1-inside-1_404_411" fill="white">
<path fill-rule="evenodd" clip-rule="evenodd" d="M11.8358 13.5185C13.8562 13.5185 15.7091 12.4745 16.988 10.9103C21.4751 5.422 27.8066 1.50042 35.0364 0.0915785C38.289 -0.542221 41 2.20479 41 5.5185V13.5185V47.5185V55.5185C41 58.8322 38.289 61.5792 35.0364 60.9454C27.8066 59.5366 21.4751 55.615 16.988 50.1267C15.7091 48.5625 13.8562 47.5185 11.8358 47.5185H6C2.68629 47.5185 0 44.8322 0 41.5185V19.5185C0 16.2048 2.68629 13.5185 6 13.5185H11.8358Z"/>
</mask>
<path d="M11.8358 13.5185V16.5185V13.5185ZM16.988 50.1267L19.3105 48.2278L16.988 50.1267ZM35.0364 0.0915785L34.4626 -2.85304L35.0364 0.0915785ZM34.4626 -2.85304C26.5255 -1.30639 19.5824 2.99731 14.6654 9.01145L19.3105 12.8092C23.3677 7.84669 29.0876 4.30722 35.6102 3.03619L34.4626 -2.85304ZM44 13.5185V5.5185H38V13.5185H44ZM38 13.5185V47.5185H44V13.5185H38ZM44 55.5185V47.5185H38V55.5185H44ZM14.6654 52.0255C19.5824 58.0397 26.5255 62.3434 34.4626 63.89L35.6102 58.0008C29.0876 56.7298 23.3677 53.1903 19.3105 48.2278L14.6654 52.0255ZM11.8358 44.5185H6V50.5185H11.8358V44.5185ZM3 41.5185V19.5185H-3V41.5185H3ZM6 16.5185H11.8358V10.5185H6L6 16.5185ZM3 19.5185C3 17.8616 4.34315 16.5185 6 16.5185L6 10.5185C1.02944 10.5185 -3 14.5479 -3 19.5185H3ZM38 55.5185C38 56.3649 37.6517 57.0849 37.1805 57.5289C36.738 57.9459 36.208 58.1173 35.6102 58.0008L34.4626 63.89C39.9666 64.9625 44 60.2897 44 55.5185H38ZM6 44.5185C4.34315 44.5185 3 43.1754 3 41.5185H-3C-3 46.4891 1.02944 50.5185 6 50.5185V44.5185ZM14.6654 9.01145C13.846 10.0137 12.7951 10.5185 11.8358 10.5185V16.5185C14.9173 16.5185 17.5723 14.9353 19.3105 12.8092L14.6654 9.01145ZM19.3105 48.2278C17.5723 46.1017 14.9173 44.5185 11.8358 44.5185V50.5185C12.7951 50.5185 13.846 51.0233 14.6654 52.0255L19.3105 48.2278ZM35.6102 3.03619C36.208 2.91972 36.738 3.09108 37.1805 3.50812C37.6517 3.95206 38 4.67214 38 5.5185H44C44 0.747279 39.9666 -3.92555 34.4626 -2.85304L35.6102 3.03619Z" fill="black" mask="url(#path-1-inside-1_404_411)"/>
<rect x="45.0795" y="10.6107" width="15.4159" height="4.20694" rx="2.10347" transform="rotate(-33.6007 45.0795 10.6107)" stroke="black" stroke-width="3"/>
<rect x="2.07947" y="-0.419268" width="15.4159" height="4.20694" rx="2.10347" transform="matrix(0.832914 0.553402 0.553402 -0.832914 43.6654 48.9092)" stroke="black" stroke-width="3"/>
<rect x="45.5859" y="28.3257" width="15.4159" height="4.20694" rx="2.10347" stroke="black" stroke-width="3"/>
</svg>
