<svg width="49" height="45" viewBox="0 0 49 45" fill="none" xmlns="http://www.w3.org/2000/svg">
<mask id="path-1-inside-1_504_456" fill="white">
<path fill-rule="evenodd" clip-rule="evenodd" d="M43 45C46.3137 45 49 42.3137 49 39L49 6C49 2.68629 46.3137 0 43 0L36 0C32.6863 0 30 2.68629 30 6L30 39C30 42.3137 32.6863 45 36 45H43ZM13 45C16.3137 45 19 42.3137 19 39L19 6C19 2.68629 16.3137 0 13 0L6 0C2.68629 0 0 2.68629 0 6L0 39C0 42.3137 2.68629 45 6 45H13Z"/>
</mask>
<path d="M46 6L46 39H52L52 6L46 6ZM36 3L43 3V-3L36 -3V3ZM33 39L33 6L27 6L27 39L33 39ZM43 42H36V48H43V42ZM16 6L16 39H22L22 6L16 6ZM6 3L13 3V-3L6 -3V3ZM3 39L3 6L-3 6L-3 39H3ZM13 42H6V48H13V42ZM-3 39C-3 43.9706 1.02944 48 6 48V42C4.34315 42 3 40.6569 3 39H-3ZM6 -3C1.02944 -3 -3 1.02944 -3 6L3 6C3 4.34315 4.34315 3 6 3V-3ZM16 39C16 40.6569 14.6569 42 13 42V48C17.9706 48 22 43.9706 22 39H16ZM22 6C22 1.02944 17.9706 -3 13 -3V3C14.6569 3 16 4.34315 16 6L22 6ZM27 39C27 43.9706 31.0294 48 36 48V42C34.3431 42 33 40.6569 33 39L27 39ZM36 -3C31.0294 -3 27 1.02944 27 6L33 6C33 4.34315 34.3431 3 36 3V-3ZM46 39C46 40.6569 44.6569 42 43 42V48C47.9706 48 52 43.9706 52 39H46ZM52 6C52 1.02944 47.9706 -3 43 -3V3C44.6569 3 46 4.34315 46 6L52 6Z" fill="black" mask="url(#path-1-inside-1_504_456)"/>
</svg>
