<svg width="49" height="77" viewBox="0 0 49 77" fill="none" xmlns="http://www.w3.org/2000/svg">
<mask id="path-1-inside-1_505_423" fill="white">
<path d="M47.0138 33.9793C49.6621 36.3627 49.6621 40.5154 47.0138 42.8989L10.9829 75.3262C7.12176 78.8011 0.969153 76.061 0.969153 70.8664L0.969153 6.01179C0.969153 0.817183 7.12177 -1.923 10.9829 1.55198L47.0138 33.9793Z"/>
</mask>
<path d="M10.9829 1.55198L12.9898 -0.677917L10.9829 1.55198ZM10.9829 75.3262L12.9898 77.5561L10.9829 75.3262ZM47.0138 42.8989L45.0069 40.669L47.0138 42.8989ZM47.0138 33.9793L45.0069 36.2092L47.0138 33.9793ZM45.0069 40.669L8.97603 73.0963L12.9898 77.5561L49.0206 45.1288L45.0069 40.669ZM3.96915 70.8664L3.96915 6.01179L-2.03085 6.01179L-2.03085 70.8664H3.96915ZM8.97603 3.78188L45.0069 36.2092L49.0206 31.7494L12.9898 -0.677917L8.97603 3.78188ZM3.96915 6.01179C3.96915 3.41447 7.04547 2.0444 8.97603 3.78188L12.9898 -0.677917C7.19806 -5.8904 -2.03085 -1.7801 -2.03085 6.01179L3.96915 6.01179ZM8.97603 73.0963C7.04546 74.8338 3.96915 73.4637 3.96915 70.8664H-2.03085C-2.03085 78.6583 7.19807 82.7685 12.9898 77.5561L8.97603 73.0963ZM49.0206 45.1288C52.9931 41.5536 52.9931 35.3246 49.0206 31.7494L45.0069 36.2092C46.331 37.4009 46.331 39.4772 45.0069 40.669L49.0206 45.1288Z" fill="black" mask="url(#path-1-inside-1_505_423)"/>
</svg>
