<svg width="73" height="73" viewBox="0 0 73 73" fill="none" xmlns="http://www.w3.org/2000/svg">
<mask id="path-1-inside-1_404_232" fill="white">
<path fill-rule="evenodd" clip-rule="evenodd" d="M29.5821 5C29.5821 2.23858 31.8207 0 34.5821 0H38.1084C40.8698 0 43.1084 2.23858 43.1084 5V11.4192C43.1084 12.7946 44.0044 14.0004 45.259 14.5642C46.5839 15.1598 48.1568 14.9691 49.1839 13.942L53.7274 9.39852C55.68 7.44589 58.8458 7.4459 60.7985 9.39852L63.2919 11.892C65.2445 13.8446 65.2445 17.0104 63.2919 18.963L58.2917 23.9632C57.376 24.8789 57.1693 26.2656 57.6518 27.4673C58.1446 28.6948 59.2947 29.5821 60.6175 29.5821H67.6904C70.4519 29.5821 72.6904 31.8207 72.6904 34.5821V38.1084C72.6904 40.8698 70.4519 43.1084 67.6904 43.1084H60.6356C59.3084 43.1084 58.1549 43.9997 57.6619 45.2319C57.1803 46.4355 57.3879 47.8234 58.3046 48.7401L63.2919 53.7274C65.2445 55.68 65.2445 58.8458 63.2919 60.7984L60.7984 63.2919C58.8458 65.2445 55.68 65.2445 53.7273 63.2919L49.2154 58.7799C48.1825 57.7471 46.6008 57.5563 45.2688 58.1557C44.0087 58.7228 43.1084 59.934 43.1084 61.3159V67.6904C43.1084 70.4519 40.8698 72.6904 38.1084 72.6904H34.5821C31.8207 72.6904 29.5821 70.4519 29.5821 67.6904V62.2655C29.5821 60.6483 28.4595 59.2591 26.949 58.6817C25.5168 58.1342 23.8788 58.3761 22.7947 59.4603L18.9631 63.2919C17.0104 65.2445 13.8446 65.2445 11.892 63.2919L9.39855 60.7984C7.44593 58.8458 7.44593 55.68 9.39855 53.7273L12.7579 50.368C13.9609 49.165 14.181 47.3269 13.5108 45.7631C12.8549 44.2326 11.4121 43.1084 9.74688 43.1084H5C2.23858 43.1084 0 40.8698 0 38.1084V34.5821C0 31.8207 2.23858 29.5821 5 29.5821H9.76575C11.4262 29.5821 12.8655 28.4625 13.5212 26.937C14.1925 25.3752 13.9735 23.5381 12.7715 22.336L9.39852 18.963C7.44589 17.0104 7.4459 13.8446 9.39852 11.892L11.892 9.39853C13.8446 7.44591 17.0104 7.44591 18.963 9.39853L22.8268 13.2623C23.9054 14.3409 25.5347 14.5825 26.9599 14.0385C28.4643 13.4642 29.5821 12.0808 29.5821 10.4704V5Z"/>
</mask>
<path d="M53.7274 9.39852L55.8487 11.5198V11.5198L53.7274 9.39852ZM60.7985 9.39852L62.9198 7.2772L62.9198 7.2772L60.7985 9.39852ZM63.2919 11.892L61.1706 14.0133L61.1706 14.0133L63.2919 11.892ZM63.2919 18.963L65.4132 21.0844V21.0843L63.2919 18.963ZM63.2919 60.7984L65.4132 62.9198L65.4132 62.9198L63.2919 60.7984ZM60.7984 63.2919L58.6771 61.1706L58.6771 61.1706L60.7984 63.2919ZM18.9631 63.2919L21.0844 65.4132L18.9631 63.2919ZM11.892 63.2919L9.77067 65.4132H9.77067L11.892 63.2919ZM9.39855 60.7984L11.5199 58.6771H11.5199L9.39855 60.7984ZM9.39855 53.7273L7.27723 51.606H7.27723L9.39855 53.7273ZM9.39852 18.963L11.5198 16.8417L9.39852 18.963ZM9.39852 11.892L11.5198 14.0133H11.5198L9.39852 11.892ZM11.892 9.39853L14.0133 11.5199V11.5199L11.892 9.39853ZM13.5108 45.7631L16.2683 44.5814L13.5108 45.7631ZM26.9599 14.0385L25.89 11.2358L26.9599 14.0385ZM26.949 58.6817L25.8777 61.4839L26.949 58.6817ZM13.5212 26.937L16.2773 28.1218L13.5212 26.937ZM57.6619 45.2319L54.8766 44.1173L57.6619 45.2319ZM45.2688 58.1557L46.5 60.8914L45.2688 58.1557ZM34.5821 -3C30.1638 -3 26.5821 0.581721 26.5821 5H32.5821C32.5821 3.89543 33.4775 3 34.5821 3V-3ZM38.1084 -3H34.5821V3H38.1084V-3ZM46.1084 5C46.1084 0.581726 42.5267 -3 38.1084 -3V3C39.2129 3 40.1084 3.89543 40.1084 5H46.1084ZM46.1084 11.4192V5H40.1084V11.4192H46.1084ZM51.6061 7.2772L47.0626 11.8207L51.3052 16.0633L55.8487 11.5198L51.6061 7.2772ZM62.9198 7.2772C59.7956 4.153 54.7303 4.153 51.6061 7.2772L55.8487 11.5198C56.6297 10.7388 57.8961 10.7388 58.6771 11.5198L62.9198 7.2772ZM65.4132 9.77065L62.9198 7.2772L58.6771 11.5198L61.1706 14.0133L65.4132 9.77065ZM65.4132 21.0843C68.5374 17.9602 68.5374 12.8948 65.4132 9.77064L61.1706 14.0133C61.9516 14.7943 61.9516 16.0607 61.1706 16.8417L65.4132 21.0843ZM60.413 26.0846L65.4132 21.0844L61.1706 16.8417L56.1704 21.8419L60.413 26.0846ZM67.6904 26.5821H60.6175V32.5821H67.6904V26.5821ZM75.6904 34.5821C75.6904 30.1638 72.1087 26.5821 67.6904 26.5821V32.5821C68.795 32.5821 69.6904 33.4776 69.6904 34.5821H75.6904ZM75.6904 38.1084V34.5821H69.6904V38.1084H75.6904ZM67.6904 46.1084C72.1087 46.1084 75.6904 42.5267 75.6904 38.1084H69.6904C69.6904 39.213 68.795 40.1084 67.6904 40.1084V46.1084ZM60.6356 46.1084H67.6904V40.1084H60.6356V46.1084ZM65.4132 51.606L60.4259 46.6188L56.1833 50.8614L61.1705 55.8487L65.4132 51.606ZM65.4132 62.9198C68.5374 59.7956 68.5374 54.7302 65.4132 51.606L61.1705 55.8487C61.9516 56.6297 61.9516 57.8961 61.1705 58.6771L65.4132 62.9198ZM62.9197 65.4132L65.4132 62.9198L61.1705 58.6771L58.6771 61.1706L62.9197 65.4132ZM51.606 65.4132C54.7302 68.5374 59.7955 68.5374 62.9197 65.4132L58.6771 61.1706C57.896 61.9516 56.6297 61.9516 55.8487 61.1706L51.606 65.4132ZM47.094 60.9012L51.606 65.4132L55.8487 61.1706L51.3367 56.6586L47.094 60.9012ZM46.1084 67.6904V61.3159H40.1084V67.6904H46.1084ZM38.1084 75.6904C42.5266 75.6904 46.1084 72.1087 46.1084 67.6904H40.1084C40.1084 68.795 39.2129 69.6904 38.1084 69.6904V75.6904ZM34.5821 75.6904H38.1084V69.6904H34.5821V75.6904ZM26.5821 67.6904C26.5821 72.1087 30.1638 75.6904 34.5821 75.6904V69.6904C33.4775 69.6904 32.5821 68.795 32.5821 67.6904H26.5821ZM26.5821 62.2655V67.6904H32.5821V62.2655H26.5821ZM21.0844 65.4132L24.916 61.5816L20.6733 57.3389L16.8417 61.1705L21.0844 65.4132ZM9.77067 65.4132C12.8949 68.5374 17.9602 68.5374 21.0844 65.4132L16.8417 61.1705C16.0607 61.9516 14.7944 61.9516 14.0133 61.1705L9.77067 65.4132ZM7.27723 62.9197L9.77067 65.4132L14.0133 61.1705L11.5199 58.6771L7.27723 62.9197ZM7.27723 51.606C4.15304 54.7302 4.15303 59.7955 7.27723 62.9197L11.5199 58.6771C10.7388 57.896 10.7388 56.6297 11.5199 55.8487L7.27723 51.606ZM10.6366 48.2467L7.27723 51.606L11.5199 55.8487L14.8792 52.4893L10.6366 48.2467ZM5 46.1084H9.74688V40.1084H5V46.1084ZM-3 38.1084C-3 42.5267 0.58172 46.1084 5 46.1084V40.1084C3.89543 40.1084 3 39.213 3 38.1084H-3ZM-3 34.5821V38.1084H3V34.5821H-3ZM5 26.5821C0.581725 26.5821 -3 30.1638 -3 34.5821H3C3 33.4776 3.89543 32.5821 5 32.5821V26.5821ZM9.76575 26.5821H5V32.5821H9.76575V26.5821ZM7.2772 21.0844L10.6501 24.4573L14.8928 20.2147L11.5198 16.8417L7.2772 21.0844ZM7.2772 9.77066C4.153 12.8949 4.153 17.9602 7.2772 21.0844L11.5198 16.8417C10.7388 16.0607 10.7388 14.7943 11.5198 14.0133L7.2772 9.77066ZM9.77064 7.27721L7.2772 9.77066L11.5198 14.0133L14.0133 11.5199L9.77064 7.27721ZM21.0844 7.27721C17.9602 4.15302 12.8948 4.15301 9.77064 7.27721L14.0133 11.5199C14.7943 10.7388 16.0607 10.7388 16.8417 11.5199L21.0844 7.27721ZM24.9481 11.141L21.0844 7.27721L16.8417 11.5199L20.7054 15.3836L24.9481 11.141ZM26.5821 5V10.4704H32.5821V5H26.5821ZM28.0297 16.8412C30.4913 15.9016 32.5821 13.5309 32.5821 10.4704H26.5821C26.5821 10.5633 26.553 10.6869 26.4413 10.8348C26.3233 10.991 26.1324 11.1432 25.89 11.2358L28.0297 16.8412ZM16.2773 28.1218C17.3543 25.6164 17.0969 22.4188 14.8928 20.2147L10.6501 24.4573C10.8502 24.6573 11.0308 25.1341 10.765 25.7523L16.2773 28.1218ZM16.2683 44.5814C15.2272 42.152 12.8197 40.1084 9.74688 40.1084V46.1084C10.0044 46.1084 10.4827 46.3132 10.7534 46.9449L16.2683 44.5814ZM28.0202 55.8795C25.6462 54.9719 22.7114 55.3009 20.6733 57.3389L24.916 61.5816C25.0463 61.4513 25.3874 61.2965 25.8777 61.4839L28.0202 55.8795ZM54.8678 28.585C55.7513 30.7856 57.9017 32.5821 60.6175 32.5821V26.5821C60.6418 26.5821 60.6345 26.5928 60.5913 26.5613C60.5413 26.5248 60.4773 26.453 60.4358 26.3495L54.8678 28.585ZM14.8792 52.4893C17.0834 50.2852 17.3425 47.0882 16.2683 44.5814L10.7534 46.9449C11.0194 47.5656 10.8384 48.0449 10.6366 48.2467L14.8792 52.4893ZM20.7054 15.3836C22.737 17.4151 25.6621 17.745 28.0297 16.8412L25.89 11.2358C25.4073 11.42 25.0739 11.2667 24.9481 11.141L20.7054 15.3836ZM44.0376 55.4199C41.8658 56.3974 40.1084 58.5829 40.1084 61.3159H46.1084C46.1084 61.2904 46.1144 61.2354 46.1736 61.1509C46.2374 61.0597 46.3484 60.9596 46.5 60.8914L44.0376 55.4199ZM44.0291 17.3005C46.3328 18.336 49.2809 18.0876 51.3052 16.0633L47.0626 11.8207C47.0364 11.8469 46.9906 11.8797 46.8943 11.8939C46.789 11.9095 46.6426 11.8971 46.4889 11.828L44.0291 17.3005ZM32.5821 62.2655C32.5821 59.198 30.4863 56.8222 28.0202 55.8795L25.8777 61.4839C26.1238 61.578 26.3179 61.7326 26.438 61.8917C26.5519 62.0425 26.5821 62.1693 26.5821 62.2655H32.5821ZM9.76575 32.5821C12.8319 32.5821 15.2356 30.5454 16.2773 28.1218L10.765 25.7523C10.4954 26.3797 10.0205 26.5821 9.76575 26.5821V32.5821ZM54.8766 44.1173C54.0045 46.2968 54.3172 48.9953 56.1833 50.8614L60.4259 46.6188C60.4253 46.6182 60.4256 46.6184 60.4261 46.619C60.4265 46.6196 60.4263 46.6194 60.4255 46.6179C60.424 46.6151 60.4186 46.6034 60.4146 46.5802C60.4059 46.5301 60.4076 46.4452 60.4472 46.3464L54.8766 44.1173ZM60.6356 40.1084C57.9135 40.1084 55.7594 41.9112 54.8766 44.1173L60.4472 46.3464C60.4892 46.2413 60.5542 46.168 60.6055 46.1306C60.65 46.0981 60.6586 46.1084 60.6356 46.1084V40.1084ZM51.3367 56.6586C49.3057 54.6276 46.3477 54.3803 44.0376 55.4199L46.5 60.8914C46.6574 60.8205 46.8078 60.8076 46.9167 60.8236C47.0165 60.8383 47.0655 60.8726 47.094 60.9012L51.3367 56.6586ZM56.1704 21.8419C54.3045 23.7078 53.9932 26.4067 54.8678 28.585L60.4358 26.3495C60.3967 26.2521 60.395 26.1685 60.4035 26.1197C60.4074 26.0972 60.4126 26.0861 60.4137 26.0838C60.4144 26.0826 60.4144 26.0827 60.4138 26.0835C60.4131 26.0844 60.4127 26.0849 60.413 26.0846L56.1704 21.8419ZM40.1084 11.4192C40.1084 14.1455 41.8613 16.3262 44.0291 17.3005L46.4889 11.828C46.3407 11.7614 46.2325 11.6636 46.1706 11.5752C46.1134 11.4935 46.1084 11.4415 46.1084 11.4192H40.1084Z" fill="black" mask="url(#path-1-inside-1_404_232)"/>
<circle cx="35.4762" cy="36.3622" r="14.922" stroke="black" stroke-width="3"/>
</svg>
